<?xml version='1.0' encoding='utf-8'?>
<svg xmlns="http://www.w3.org/2000/svg" width="275.009mm" height="275.009mm" style="shape-rendering:geometricPrecision; text-rendering:geometricPrecision; image-rendering:optimizeQuality; fill-rule:evenodd; clip-rule:evenodd" viewBox="0 0 124.661 124.661"> <defs> <style type="text/css">  .str0 {stroke:white;stroke-width:0.09066} .fil1 {fill:#828282} .fil0 {fill:#919191} .fil3 {fill:white;fill-rule:nonzero} .fil2 {fill:#E5E5E5;fill-rule:nonzero}  </style> </defs> <g id="Layer_x0020_1"> <metadata id="CorelCorpID_0Corel-Layer"/> <g id="_103475152"> <circle id="_103475392" class="fil0" cx="62.3307" cy="62.3307" r="59.5341"/> <path id="_103475320" class="fil1" d="M66.5762 121.712c-1.40269,0.0985474 -2.81785,0.152717 -4.24547,0.152717 -31.7677,0 -57.7301,-24.8966 -59.4421,-56.237l29.656 -33.0832 55.2431 -0.921241 8.73953 24.1806 -2.58766 30.6547 -27.3635 35.2533z"/> <path id="_103475248" class="fil2 str0" d="M62.3307 0.04533c17.1963,0 32.769,6.97397 44.0405,18.2454 11.2714,11.2714 18.2449,26.8436 18.2449,44.0399 0,17.1964 -6.97343,32.7685 -18.2449,44.04 -11.2714,11.2714 -26.8441,18.2454 -44.0405,18.2454 -17.1964,0 -32.769,-6.97397 -44.0405,-18.2454 -11.2714,-11.2714 -18.2449,-26.8436 -18.2449,-44.04 0,-17.1963 6.97343,-32.7685 18.2449,-44.0399 11.2715,-11.2714 26.8441,-18.2454 44.0405,-18.2454zm40.1498 22.1361c-10.276,-10.276 -24.4725,-16.6337 -40.1498,-16.6337 -15.6772,0 -29.8738,6.35767 -40.1498,16.6337 -10.276,10.276 -16.6331,24.472 -16.6331,40.1492 0,15.6772 6.35712,29.8732 16.6331,40.1492 10.276,10.276 24.4725,16.6337 40.1498,16.6337 15.6772,0 29.8737,-6.35762 40.1498,-16.6337 10.276,-10.276 16.6331,-24.472 16.6331,-40.1492 0,-15.6772 -6.35712,-29.8732 -16.6331,-40.1492z"/> <path id="_103475176" class="fil3" d="M62.3664 43.6336c5.10443,0 9.72686,2.06995 13.0722,5.4153 3.34481,3.34481 5.4153,7.96724 5.4153,13.0717 0,5.10443 -2.06995,9.72682 -5.4153,13.0722 -3.34535,3.3454 -7.96779,5.4153 -13.0722,5.4153 -5.10443,0 -9.72682,-2.07045 -13.0716,-5.4153 -3.3454,-3.34535 -5.4153,-7.96774 -5.4153,-13.0722 0,-5.10443 2.07045,-9.72686 5.4153,-13.0717 3.34481,-3.34481 7.9672,-5.4153 13.0716,-5.4153zm-13.8363 -17.7342l27.6007 0c6.22711,0 11.8856,2.54546 15.9854,6.64524 4.09978,4.09874 6.64524,9.75882 6.64524,15.9854l0 27.6007c0,6.22711 -2.54546,11.8856 -6.64524,15.9853 -4.09978,4.09982 -9.75827,6.64524 -15.9854,6.64524l-27.6007 0c-6.22662,0 -11.8867,-2.54541 -15.9854,-6.64524 -4.09978,-4.09978 -6.64524,-9.75823 -6.64524,-15.9853l0 -27.6007c0,-6.22657 2.54546,-11.8867 6.64524,-15.9854 4.09869,-4.09978 9.75877,-6.64524 15.9854,-6.64524zm27.6007 6.87814l-27.6007 0c-4.32729,0 -8.26619,1.77422 -11.122,4.63055 -2.85629,2.85574 -4.63055,6.79469 -4.63055,11.1219l0 27.6007c0,4.32779 1.77372,8.26511 4.63055,11.1219 2.85579,2.85633 6.79469,4.63055 11.122,4.63055l27.6007 0c4.32779,0 8.26511,-1.77367 11.122,-4.63055 2.85683,-2.85683 4.63055,-6.79415 4.63055,-11.1219l0 -27.6007c0,-4.32724 -1.77426,-8.26619 -4.63055,-11.1219 -2.85688,-2.85688 -6.79419,-4.63055 -11.122,-4.63055zm5.23711 6.41614c1.93672,0 3.50949,1.57272 3.50949,3.51271 0,1.93668 -1.57277,3.50945 -3.50949,3.50945 -1.93994,0 -3.51271,-1.57277 -3.51271,-3.50945 0,-1.93999 1.57277,-3.51271 3.51271,-3.51271zm-10.7927 14.7186c-2.10082,-2.10082 -5.0037,-3.40061 -8.20881,-3.40061 -3.20506,0 -6.10794,1.30034 -8.20822,3.40061 -2.10027,2.10027 -3.40061,5.00316 -3.40061,8.20826 0,3.20506 1.29979,6.10794 3.40061,8.20876 2.10027,2.10027 5.00316,3.40061 8.20822,3.40061 3.2051,0 6.10799,-1.29979 8.20881,-3.40061 2.10082,-2.10082 3.40061,-5.0037 3.40061,-8.20876 0,-3.2051 -1.30034,-6.10799 -3.40061,-8.20826z"/> </g> </g> </svg>