<?xml version="1.0" standalone="no"?>
<!DOCTYPE svg PUBLIC "-//W3C//DTD SVG 20010904//EN"
 "http://www.w3.org/TR/2001/REC-SVG-20010904/DTD/svg10.dtd">
<svg version="1.0" xmlns="http://www.w3.org/2000/svg"
 width="1200.000000pt" height="630.000000pt" viewBox="0 0 1200.000000 630.000000"
 preserveAspectRatio="xMidYMid meet">

<g transform="translate(0.000000,630.000000) scale(0.100000,-0.100000)"
fill="#000000" stroke="none">
<path d="M4490 6193 c-418 -45 -760 -205 -1044 -489 -259 -259 -414 -565 -478
-944 -19 -109 -19 -3111 0 -3220 64 -379 219 -685 478 -944 259 -259 565 -414
944 -478 109 -19 3111 -19 3220 0 379 64 685 219 944 478 259 259 414 565 478
944 19 109 19 3111 0 3220 -64 379 -219 685 -478 944 -255 255 -536 399 -929
477 -45 9 -450 13 -1580 14 -836 1 -1536 0 -1555 -2z m2995 -544 c265 -27 493
-136 686 -328 192 -193 301 -421 328 -686 15 -151 15 -2819 0 -2970 -27 -265
-136 -493 -328 -686 -193 -192 -421 -301 -686 -328 -151 -15 -2819 -15 -2970
0 -265 27 -493 136 -686 328 -192 193 -301 421 -328 686 -15 151 -15 2819 0
2970 19 185 79 353 184 515 63 96 219 252 315 315 155 100 335 167 500 184
131 13 2854 13 2985 0z"/>
<path d="M7539 5166 c-152 -43 -261 -161 -289 -315 -31 -173 59 -345 224 -426
70 -34 188 -45 263 -24 191 53 317 241 292 436 -14 111 -105 245 -198 292 -95
49 -200 62 -292 37z"/>
<path d="M5805 4708 c-256 -28 -535 -142 -755 -308 -688 -521 -823 -1508 -300
-2200 414 -547 1138 -759 1792 -524 420 151 781 512 932 932 209 584 70 1216
-365 1651 -345 344 -809 505 -1304 449z m450 -562 c112 -29 271 -103 355 -166
186 -139 326 -348 387 -575 23 -88 26 -119 26 -255 0 -136 -3 -167 -26 -255
-61 -227 -201 -436 -387 -575 -83 -61 -243 -137 -355 -167 -88 -23 -119 -26
-255 -26 -136 0 -167 3 -255 26 -112 30 -272 106 -355 167 -186 139 -326 348
-387 575 -23 88 -26 119 -26 255 0 136 3 167 26 255 106 396 417 683 824 760
116 22 301 14 428 -19z"/>
</g>
</svg>
